<?xml version="1.0" standalone="no"?>
<!DOCTYPE svg PUBLIC "-//W3C//DTD SVG 20010904//EN"
 "http://www.w3.org/TR/2001/REC-SVG-20010904/DTD/svg10.dtd">
<svg version="1.0" xmlns="http://www.w3.org/2000/svg"
 width="256.000000pt" height="256.000000pt" viewBox="0 0 256.000000 256.000000"
 preserveAspectRatio="xMidYMid meet">

<g transform="translate(0.000000,256.000000) scale(0.100000,-0.100000)"
fill="#000000" stroke="none">
<path d="M2205 2290 c-123 -123 -130 -129 -148 -113 -17 16 -22 13 -100 -65
l-82 -82 68 -67 67 -68 82 82 c78 79 82 84 65 100 -16 17 -10 24 119 154 l136
136 -32 26 c-17 15 -35 27 -38 27 -4 0 -66 -58 -137 -130z"/>
<path d="M1646 2000 c-74 -68 -75 -65 97 -237 126 -127 156 -151 174 -147 28
8 103 88 103 111 0 9 -67 84 -148 165 -81 81 -156 148 -165 148 -10 0 -37 -18
-61 -40z"/>
<path d="M935 1550 c-231 -231 -425 -420 -430 -420 -6 0 -26 16 -45 35 -19 19
-43 35 -55 35 -23 0 -145 -117 -145 -140 0 -8 71 -86 157 -172 l158 -158 -152
-152 -153 -153 -58 58 c-32 31 -64 57 -73 57 -22 0 -109 -92 -109 -115 0 -27
348 -375 375 -375 23 0 115 88 115 110 0 8 -26 40 -57 72 l-58 58 153 153 152
152 158 -158 c86 -86 164 -157 172 -157 23 0 140 122 140 146 0 11 -16 35 -35
54 -19 19 -35 39 -35 45 0 5 189 199 420 430 275 275 420 427 420 440 0 28
-548 575 -575 575 -13 0 -167 -147 -440 -420z m752 -2 c85 -84 133 -139 133
-153 0 -13 -128 -148 -384 -404 -335 -335 -387 -383 -408 -378 -36 10 -268
249 -268 278 0 24 94 129 115 129 6 0 35 -25 65 -55 30 -30 61 -55 69 -55 17
0 51 29 51 44 0 6 -28 39 -62 73 l-63 63 53 52 52 53 64 -64 c65 -64 65 -64
90 -47 40 26 33 54 -31 118 l-57 58 49 50 49 50 61 -60 c65 -64 78 -69 107
-43 29 26 22 45 -42 108 l-60 59 47 48 c26 26 52 48 58 48 6 0 35 -25 65 -55
30 -30 61 -55 69 -55 17 0 51 29 51 44 0 6 -28 39 -62 74 l-63 63 47 44 c26
25 52 45 59 45 7 0 72 -59 146 -132z"/>
<path d="M1812 948 c-7 -7 -12 -37 -12 -68 0 -31 5 -61 12 -68 17 -17 239 -17
256 0 16 16 16 120 0 136 -17 17 -239 17 -256 0z"/>
<path d="M2296 784 c-10 -10 -16 -33 -16 -64 0 -71 13 -80 120 -80 107 0 120
9 120 80 0 71 -13 80 -120 80 -67 0 -92 -4 -104 -16z"/>
<path d="M1652 708 c-17 -17 -17 -639 0 -656 17 -17 439 -17 456 0 17 17 17
639 0 656 -17 17 -439 17 -456 0z m176 -80 c17 -17 17 -439 0 -456 -16 -16
-80 -16 -96 0 -17 17 -17 439 0 456 7 7 28 12 48 12 20 0 41 -5 48 -12z"/>
<path d="M2212 548 c-17 -17 -17 -479 0 -496 17 -17 319 -17 336 0 17 17 17
479 0 496 -17 17 -319 17 -336 0z m176 -80 c8 -8 12 -56 12 -148 0 -92 -4
-140 -12 -148 -16 -16 -80 -16 -96 0 -8 8 -12 56 -12 148 0 92 4 140 12 148 7
7 28 12 48 12 20 0 41 -5 48 -12z"/>
</g>
</svg>
