<?xml version="1.0" standalone="no"?>
<!DOCTYPE svg PUBLIC "-//W3C//DTD SVG 20010904//EN"
 "http://www.w3.org/TR/2001/REC-SVG-20010904/DTD/svg10.dtd">
<svg version="1.0" xmlns="http://www.w3.org/2000/svg"
 width="512.000000pt" height="512.000000pt" viewBox="0 0 512.000000 512.000000"
 preserveAspectRatio="xMidYMid meet">

<g transform="translate(0.000000,512.000000) scale(0.100000,-0.100000)"
fill="#000000" stroke="none">
<path d="M1544 5076 l-34 -34 0 -466 0 -466 -108 0 c-145 0 -200 -17 -262 -80
-61 -60 -80 -119 -80 -244 l-1 -91 -51 -30 c-29 -16 -67 -49 -85 -73 -65 -86
-63 -54 -63 -1023 l0 -877 -31 -12 c-45 -19 -117 -94 -142 -148 -30 -65 -30
-179 0 -243 27 -60 86 -119 149 -150 46 -22 62 -24 237 -27 l187 -4 0 -258 0
-258 -31 -12 c-45 -19 -117 -94 -142 -148 -30 -65 -30 -179 0 -243 27 -60 86
-119 149 -150 49 -24 50 -24 374 -24 311 0 327 1 371 21 60 28 125 93 152 153
30 64 30 178 0 243 -25 54 -97 129 -142 148 l-31 12 0 258 0 258 188 4 c165 3
192 6 233 25 60 27 125 92 152 152 30 64 30 178 0 243 -25 54 -97 129 -142
148 l-31 12 0 877 c0 969 2 937 -63 1023 -18 24 -56 57 -85 73 l-51 30 -1 91
c0 125 -19 184 -80 244 -62 63 -117 80 -262 80 l-108 0 0 466 0 466 -34 34
c-24 25 -43 34 -66 34 -23 0 -41 -9 -66 -34z m400 -1188 c11 -16 16 -46 16
-100 l0 -78 -350 0 -350 0 0 82 c0 127 -26 118 351 118 317 0 318 0 333 -22z
m161 -390 c57 -26 55 7 55 -928 l0 -860 -550 0 -550 0 0 100 0 100 91 0 c90 0
91 0 125 34 46 46 46 86 0 132 -34 34 -35 34 -125 34 l-91 0 0 100 0 100 141
0 141 0 34 34 c24 25 34 43 34 66 0 23 -10 42 -34 66 l-34 34 -141 0 -141 0 0
100 0 100 91 0 c90 0 91 0 125 34 24 25 34 43 34 66 0 23 -10 42 -34 66 -34
34 -35 34 -125 34 l-91 0 0 100 0 100 141 0 141 0 34 34 c46 46 46 86 0 132
l-34 34 -141 0 -141 0 0 63 c1 68 15 103 51 123 33 18 954 20 994 2z m200
-2000 c29 -13 55 -55 55 -88 0 -33 -26 -75 -55 -88 -37 -17 -1353 -17 -1390 0
-69 31 -71 137 -4 174 33 18 1354 20 1394 2z m-545 -638 l0 -250 -150 0 -150
0 0 250 0 250 150 0 150 0 0 -250z m149 -464 c66 -35 66 -137 0 -172 -37 -19
-553 -21 -594 -2 -69 31 -71 137 -4 174 36 20 559 20 598 0z"/>
</g>
</svg>
