<?xml version="1.0" encoding="iso-8859-1"?>
<!-- Generator: Adobe Illustrator 16.0.0, SVG Export Plug-In . SVG Version: 6.00 Build 0)  -->
<!DOCTYPE svg PUBLIC "-//W3C//DTD SVG 1.1//EN" "http://www.w3.org/Graphics/SVG/1.1/DTD/svg11.dtd">
<svg version="1.1" id="Capa_1" xmlns="http://www.w3.org/2000/svg" xmlns:xlink="http://www.w3.org/1999/xlink" x="0px" y="0px"
	 width="106.048px" height="106.048px" viewBox="0 0 106.048 106.048" style="enable-background:new 0 0 106.048 106.048;"
	 xml:space="preserve">
<g>
	<path style="fill:#010002;" d="M84.838,0H21.209C9.543,0,0,9.543,0,21.209v63.629c0,11.666,9.543,21.21,21.209,21.21h63.628
		c11.667,0,21.21-9.544,21.21-21.21V21.209C106.048,9.543,96.505,0,84.838,0z M51.269,27.073H40.415v41.646h-3.687v3.557
		c0,0,0.241,1.078-1.665,1.637v17.347c0,0.85-0.684,1.538-1.53,1.538c-0.849,0-1.532-0.688-1.532-1.538V73.912
		c-1.906-0.554-1.665-1.637-1.665-1.637v-3.557h-3.708V27.073H15.791c-0.829,0-1.512-0.673-1.512-1.504
		c0-0.829,0.684-1.507,1.512-1.507h13.753v-7.736h-4.772c-0.847,0-1.533-0.688-1.533-1.532c0-0.85,0.686-1.538,1.533-1.538h17.515
		c0.847,0,1.543,0.688,1.543,1.538c0,0.844-0.696,1.532-1.543,1.532h-4.771v7.736h13.764c0.828,0,1.501,0.678,1.501,1.507
		C52.771,26.4,52.097,27.073,51.269,27.073z M89.633,59.093l-0.01,28.122c-0.844,4.572-6.515,5.245-12.992,5.582
		c-6.509-0.326-12.158-1.01-13.028-5.582V58.812c-0.9-0.797-1.512-1.812-1.729-3.091V48.04c0.859-4.943,7.399-5.924,14.949-6.258
		c7.183,0.238,13.055,1.315,14.737,5.352l0.062,0.204l0.016,0.207l0.13,8.172C91.528,57.161,90.741,58.232,89.633,59.093z
		 M67.947,48.586c-1.041-0.362-1.844-0.784-2.31-1.162c1.419-1.176,5.81-2.411,10.874-2.411c0.109,0,0.207,0,0.311,0.01
		c3.294,0,6.302,0.445,8.445,1.113c1.357,0.396,2.129,0.917,2.631,1.331c-0.522,0.396-1.361,0.896-2.589,1.245
		c-2.149,0.688-5.147,1.145-8.451,1.145C73.327,49.857,70.143,49.321,67.947,48.586z M29.492,27.073h8.064v20.26h-8.064V27.073z
		 M88.474,50.919l0.072,4.808c0,0-0.011,0.16-0.466,0.539c-1.367,1.227-5.986,2.516-11.247,2.48c-3.531,0-6.711-0.503-8.906-1.27
		c-1.088-0.373-1.905-0.828-2.361-1.211C65.1,55.882,65.1,55.717,65.1,55.717v-4.909c2.78,1.532,7.021,2.063,11.765,2.263
		C81.571,52.917,85.692,52.387,88.474,50.919z M76.822,61.961c3.609-0.14,6.954-0.455,9.585-1.264v26.518
		c0,0,0.031,0.025-0.315,0.301c-1.083,0.968-4.997,2.097-9.461,2.045c-2.998,0.01-5.717-0.436-7.529-1.077
		c-0.916-0.295-1.6-0.684-1.946-0.968c-0.326-0.291-0.259-0.301-0.316-0.301v-5.686c4.282,1.693,9.673,1.424,9.673,1.424V68.066
		c-4.484,0-7.881-1.279-9.673-2.139v-5.339C69.531,61.479,73.053,61.806,76.822,61.961z"/>
</g>
<g>
</g>
<g>
</g>
<g>
</g>
<g>
</g>
<g>
</g>
<g>
</g>
<g>
</g>
<g>
</g>
<g>
</g>
<g>
</g>
<g>
</g>
<g>
</g>
<g>
</g>
<g>
</g>
<g>
</g>
</svg>
