<?xml version="1.0" standalone="no"?>
<!DOCTYPE svg PUBLIC "-//W3C//DTD SVG 20010904//EN"
 "http://www.w3.org/TR/2001/REC-SVG-20010904/DTD/svg10.dtd">
<svg version="1.0" xmlns="http://www.w3.org/2000/svg"
 width="500.000000pt" height="550.000000pt" viewBox="0 0 500.000000 550.000000"
 preserveAspectRatio="xMidYMid meet">

<g transform="translate(0.000000,550.000000) scale(0.100000,-0.100000)"
fill="#000000" stroke="none">
<path d="M1995 5480 c-375 -24 -640 -67 -772 -125 -85 -38 -84 -31 -81 -351
l3 -279 55 -27 c266 -131 989 -212 1600 -179 376 20 753 82 950 157 120 45
110 13 110 335 l0 281 -28 27 c-65 65 -255 110 -622 147 -180 18 -1003 28
-1215 14z m-585 -210 c64 -18 378 -60 543 -71 211 -15 912 -15 1095 0 170 13
430 46 526 66 38 8 71 13 74 11 9 -9 -19 -44 -55 -69 -87 -59 -289 -103 -593
-129 -203 -17 -767 -17 -985 1 -263 20 -506 67 -575 109 -39 24 -80 64 -80 79
0 16 5 16 50 3z"/>
<path d="M1078 4492 c-343 -237 -605 -533 -800 -902 -345 -651 -354 -1528 -22
-2192 319 -640 826 -1074 1499 -1283 276 -85 470 -115 756 -115 301 0 549 41
829 137 502 172 932 506 1226 953 219 334 332 628 401 1045 28 171 25 556 -5
725 -49 269 -106 448 -216 676 -195 402 -484 734 -851 973 -50 33 -84 49 -94
45 -171 -74 -401 -124 -756 -166 -163 -19 -241 -22 -555 -22 -315 1 -389 4
-540 22 -332 42 -508 78 -655 133 -44 17 -89 33 -100 35 -13 2 -55 -20 -117
-64z m177 -176 c639 -220 1829 -218 2515 4 l125 41 97 -67 c54 -37 97 -68 95
-70 -7 -7 -288 -75 -422 -102 -287 -58 -788 -124 -1195 -157 -280 -23 -721
-78 -963 -120 -387 -66 -635 -132 -1002 -264 -77 -27 -141 -48 -143 -47 -8 9
137 233 227 351 125 163 477 491 516 481 11 -3 79 -25 150 -50z m305 -758 c25
-36 72 -109 104 -162 l58 -96 -51 -85 -52 -84 25 -60 c18 -44 21 -63 13 -68
-7 -4 -54 -26 -105 -49 l-93 -42 -14 21 c-7 12 -21 39 -31 60 -21 43 -24 44
-73 17 l-36 -20 -105 40 c-58 23 -109 42 -115 43 -5 1 -31 -83 -57 -188 l-48
-190 21 -74 c61 -209 -61 -418 -276 -472 -51 -13 -46 -22 18 -33 21 -4 65 -19
98 -33 51 -22 59 -29 53 -47 -3 -12 7 -1 24 23 36 52 100 105 150 123 20 7 69
12 107 12 55 0 81 -6 120 -26 49 -26 116 -89 146 -136 14 -23 20 -24 149 -26
120 -2 143 -5 204 -29 76 -30 177 -98 223 -150 17 -19 46 -60 64 -91 19 -30
36 -56 39 -56 3 0 4 52 2 115 -2 63 -1 115 2 115 2 0 17 -5 33 -10 22 -9 17
-2 -25 35 -55 49 -126 142 -159 210 -57 114 -71 297 -33 420 105 337 445 508
771 385 254 -94 413 -378 365 -650 -27 -152 -101 -270 -246 -389 -21 -17 -21
-20 -5 -14 11 3 25 10 32 16 10 7 13 -20 15 -118 l3 -126 50 77 c59 91 129
158 212 201 92 49 161 64 290 62 l112 -2 34 49 c62 91 189 153 285 139 92 -12
170 -64 235 -155 17 -24 17 -24 12 -2 -6 20 1 26 51 48 32 14 86 29 119 33 64
8 62 11 -26 36 -121 34 -213 125 -250 247 -24 79 -22 139 7 232 18 56 17 58
-4 144 -43 170 -77 291 -83 296 -3 4 -58 -13 -122 -38 l-115 -43 -29 18 c-15
10 -31 19 -35 19 -3 0 -21 -26 -40 -59 l-33 -59 -82 37 c-45 20 -92 43 -105
52 l-23 16 23 54 c12 30 22 59 22 64 0 6 -16 33 -36 60 -76 106 -79 85 37 271
58 94 109 164 117 164 15 0 232 -67 497 -154 l130 -42 86 -155 c305 -548 350
-637 373 -734 26 -107 36 -113 29 -15 -3 47 -3 83 0 80 11 -10 69 -220 113
-409 l44 -194 -24 -31 c-57 -73 -323 -330 -410 -395 -104 -78 -224 -146 -328
-185 -71 -27 -251 -66 -302 -66 -27 0 -22 4 39 33 147 68 304 180 372 265 l33
41 -68 -40 c-124 -73 -277 -118 -397 -119 -96 0 -102 -4 -110 -66 -18 -150
-95 -351 -185 -485 -55 -82 -190 -214 -263 -258 -178 -106 -370 -128 -479 -56
-35 24 -103 103 -94 112 2 2 25 -1 52 -7 63 -14 195 -15 259 0 109 23 196 67
297 147 250 198 409 557 373 839 l-7 59 -29 -85 c-62 -186 -162 -341 -317
-492 -183 -179 -306 -236 -523 -245 l-125 -5 -14 56 c-7 31 -16 56 -20 56 -4
0 -13 -25 -20 -55 l-13 -55 -97 0 c-204 0 -371 75 -553 249 -143 137 -254 310
-316 495 l-29 88 -8 -58 c-30 -245 82 -540 289 -760 139 -148 286 -225 472
-249 48 -6 172 7 210 21 15 6 16 4 5 -15 -25 -47 -83 -101 -128 -118 -34 -13
-72 -18 -137 -17 -151 2 -285 62 -423 189 -97 90 -156 170 -218 300 -56 117
-87 216 -103 329 -5 37 -12 70 -14 72 -2 3 -55 9 -117 14 -149 14 -275 56
-402 136 -60 38 -45 13 45 -73 97 -93 178 -150 291 -205 l81 -39 -71 5 c-199
16 -453 135 -664 311 -84 70 -307 295 -334 337 -17 26 -17 31 -1 100 32 144
87 365 113 453 l27 90 5 -85 5 -85 22 90 c26 105 79 212 297 606 l151 272 85
29 c221 75 546 177 555 174 6 -1 30 -32 55 -68z"/>
<path d="M2380 2739 c-53 -17 -75 -32 -130 -87 -56 -57 -69 -77 -85 -132 -29
-94 -25 -193 8 -262 40 -82 90 -133 164 -170 89 -44 208 -51 295 -18 80 30
157 102 194 182 25 55 29 75 29 153 0 78 -4 97 -28 147 -36 73 -100 139 -168
174 -74 38 -186 43 -279 13z m-15 -83 c19 -28 12 -50 -19 -64 -45 -20 -89 41
-54 76 20 20 56 14 73 -12z"/>
</g>
</svg>
